<?xml version="1.0" encoding="utf-8"?>
<!-- Generator: Adobe Illustrator 21.1.0, SVG Export Plug-In . SVG Version: 6.00 Build 0)  -->
<svg version="1.1" id="Layer_1" xmlns="http://www.w3.org/2000/svg" xmlns:xlink="http://www.w3.org/1999/xlink" x="0px" y="0px"
	 viewBox="0 0 145.6 45" style="enable-background:new 0 0 145.6 45;" xml:space="preserve">
<style type="text/css">
	.st0{fill-rule:evenodd;clip-rule:evenodd;fill:#FFFFFF;}
	.st1{fill:#FFFFFF;}
</style>
<g>
	<path class="st0" d="M20.7,22.4c0-2.1,0.2-4.1,0.6-6.2c1.9-11,7.3-15.7,18.4-15.9C51.7,0,58.4,6,59.3,18c0.2,3.4,0.2,6.9-0.1,10.3
		C58,39.5,51,45.4,39.7,45c-11.4-0.5-16.6-4.9-18.5-16.2C20.8,26.7,20.7,24.5,20.7,22.4z M34.7,29.9c0.7,2.5,2.8,4.7,5.3,4.8
		c2.5,0.1,4.7-1.6,5.5-4.6c1.3-5,1-11.4,0-15c-0.9-3.1-2.8-4.5-5.5-4.5c-2.6,0.1-4.5,1.7-5.3,4.7C33.4,20.5,34.1,27.5,34.7,29.9z"/>
	<polygon class="st1" points="4.5,0 17.1,0 17.1,45 4.5,45 4.5,12.6 0,12.6 0,2.5 	"/>
	<path class="st0" d="M61.3,22.3c0-2.1,0.2-4.1,0.6-6.2c1.9-11,7.3-15.7,18.4-15.9c12-0.3,18.8,5.7,19.6,17.7
		c0.2,3.4,0.2,6.9-0.1,10.3c-1.2,11.3-8.2,17.1-19.5,16.7c-11.4-0.5-16.6-4.9-18.5-16.2C61.4,26.5,61.2,24.4,61.3,22.3z M75.3,29.7
		c0.7,2.5,2.8,4.7,5.3,4.8c2.5,0.1,4.7-1.6,5.5-4.6c1.3-5,1-11.4,0-15c-0.9-3.1-2.8-4.5-5.5-4.5c-2.6,0.1-4.5,1.7-5.3,4.7
		C74,20.4,74.7,27.4,75.3,29.7z"/>
	<g>
		<polygon class="st1" points="109.7,13.2 111.3,12.7 109.7,12.2 		"/>
		<rect x="108.5" y="42.9" class="st1" width="1" height="1.9"/>
		<rect x="110.6" y="42.9" class="st1" width="1" height="1.9"/>
		<path class="st1" d="M128.7,18.6L144.4,0h-17l-10.1,15.3V0h-5.5c0.2,0.1,0.4,0.3,0.5,0.4c0.2,0.2,0.3,0.5,0.4,0.8
			c0.1,0.3,0.1,0.5,0.1,0.9c0,0.5-0.1,1.1-0.4,1.7h-1.2c0.3-0.5,0.4-1,0.4-1.6c0-0.4-0.1-0.6-0.3-0.9C111,1.1,110.6,1,110,1
			c-0.6,0-1,0.1-1.2,0.3c-0.2,0.2-0.3,0.5-0.3,0.9c0,0.5,0.1,1.1,0.4,1.6h-1.2c-0.2-0.6-0.4-1.2-0.4-1.7c0-0.3,0-0.6,0.1-0.9
			c0.1-0.3,0.2-0.5,0.4-0.8c0.1-0.2,0.3-0.3,0.5-0.4h-4.8v44.8h3.8v-3.2h5.2v3.2h4.4l0-13.4l2.4-2.5l9.5,15.8h16.6L128.7,18.6z
			 M107.4,7.8h2.1V6.1h-2.1V4.7h5.2v1.3h-2v1.7h2v1.3h-5.2V7.8z M107.4,13.9l1.2-0.4v-1.7l-1.2-0.4V10l5.2,2.1v1.3l-5.2,2.1V13.9z
			 M107.4,16.2h5.2v1.3h-4.1v2.3h-1.1V16.2z M107.4,20.8h5.2v1.3h-4.1v2.3h-1.1V20.8z M107.4,25.3h5.2v3.6h-1.1v-2.3h-1v2h-1.1v-2
			h-1v2.3h-1.1V25.3z M107.4,33.5l3.1-2.1h-3.1V30h5.2v1.3l-3.1,2.1h3.1v1.3h-5.2V33.5z M112.3,40.1h-1.1c0.2-0.5,0.3-1.1,0.3-1.6
			c0-0.9-0.5-1.3-1.5-1.3c-0.6,0-1,0.1-1.2,0.3c-0.2,0.2-0.3,0.5-0.3,0.9c0,0.3,0,0.5,0.1,0.7h0.9v-0.9h1v2h-2.6
			c-0.3-0.6-0.5-1.2-0.5-1.9c0-0.2,0-0.5,0.1-0.7c0-0.2,0.1-0.4,0.2-0.7c0.1-0.2,0.3-0.4,0.5-0.6c0.2-0.2,0.4-0.3,0.8-0.4
			c0.3-0.1,0.7-0.1,1.1-0.1c0.5,0,1,0.1,1.3,0.2c0.4,0.1,0.6,0.3,0.8,0.6c0.2,0.2,0.3,0.5,0.4,0.8c0.1,0.3,0.1,0.6,0.1,0.9
			C112.7,39,112.6,39.6,112.3,40.1z"/>
	</g>
</g>
</svg>
